<svg width="22" height="22" viewBox="0 0 22 22" fill="none" xmlns="http://www.w3.org/2000/svg">
<path d="M5.91711 13.8539L8.91011 9.96487L12.3241 12.6449L15.2531 8.86487" stroke="#C6CEDD" stroke-width="1.5" stroke-linecap="round" stroke-linejoin="round"/>
<path fill-rule="evenodd" clip-rule="evenodd" d="M18.6671 1.34998C19.7291 1.34998 20.5891 2.20998 20.5891 3.27198C20.5891 4.33298 19.7291 5.19398 18.6671 5.19398C17.6051 5.19398 16.7451 4.33298 16.7451 3.27198C16.7451 2.20998 17.6051 1.34998 18.6671 1.34998Z" stroke="#C6CEDD" stroke-width="1.5" stroke-linecap="round" stroke-linejoin="round"/>
<path d="M19.7555 8.26898C19.8885 9.16398 19.9495 10.172 19.9495 11.303C19.9495 18.241 17.6375 20.553 10.6995 20.553C3.76246 20.553 1.44946 18.241 1.44946 11.303C1.44946 4.36598 3.76246 2.05298 10.6995 2.05298C11.8095 2.05298 12.8005 2.11198 13.6825 2.23998" stroke="#C6CEDD" stroke-width="1.5" stroke-linecap="round" stroke-linejoin="round"/>
</svg>
