<svg width="14" height="12" viewBox="0 0 14 12" fill="none" xmlns="http://www.w3.org/2000/svg">
<path d="M3.28004 9.8199C1.79337 8.84656 0.833374 7.3799 0.833374 6.09323C0.833374 3.90656 3.59337 1.22656 7.00004 1.22656C8.39337 1.22656 9.68671 1.67323 10.7267 2.36656" stroke="#C6CEDD" stroke-width="1.2" stroke-linecap="round" stroke-linejoin="round"/>
<path d="M12.2332 3.74023C12.8272 4.49357 13.1732 5.3269 13.1732 6.09357C13.1732 8.28023 10.4066 10.9602 6.99992 10.9602C6.39325 10.9602 5.80058 10.8736 5.24658 10.7202" stroke="#C6CEDD" stroke-width="1.2" stroke-linecap="round" stroke-linejoin="round"/>
<path d="M5.51048 7.57812C5.11381 7.18545 4.89181 6.65012 4.89381 6.09212C4.89115 4.92878 5.83248 3.98345 6.99648 3.98145C7.55648 3.98012 8.09381 4.20212 8.48981 4.59812" stroke="#C6CEDD" stroke-width="1.2" stroke-linecap="round" stroke-linejoin="round"/>
<path d="M9.07305 6.46631C8.91705 7.32764 8.24305 8.00298 7.38171 8.16098" stroke="#C6CEDD" stroke-width="1.2" stroke-linecap="round" stroke-linejoin="round"/>
<path d="M12.2612 0.833496L1.74524 11.3495" stroke="#C6CEDD" stroke-width="1.2" stroke-linecap="round" stroke-linejoin="round"/>
</svg>
