<svg width="2" height="10" viewBox="0 0 2 10" fill="none" xmlns="http://www.w3.org/2000/svg">
<path d="M1 2.19995C0.767936 2.19995 0.545376 2.10776 0.381282 1.94367C0.217187 1.77958 0.125 1.55702 0.125 1.32495C0.125 1.09289 0.217187 0.870327 0.381282 0.706233C0.545376 0.542138 0.767936 0.449951 1 0.449951C1.23206 0.449951 1.45462 0.542138 1.61872 0.706233C1.78281 0.870327 1.875 1.09289 1.875 1.32495C1.875 1.55702 1.78281 1.77958 1.61872 1.94367C1.45462 2.10776 1.23206 2.19995 1 2.19995Z" fill="#2C406E"/>
<path d="M1 5.875C0.767936 5.875 0.545376 5.78281 0.381282 5.61872C0.217187 5.45462 0.125 5.23206 0.125 5C0.125 4.76794 0.217187 4.54538 0.381282 4.38128C0.545376 4.21719 0.767936 4.125 1 4.125C1.23206 4.125 1.45462 4.21719 1.61872 4.38128C1.78281 4.54538 1.875 4.76794 1.875 5C1.875 5.23206 1.78281 5.45462 1.61872 5.61872C1.45462 5.78281 1.23206 5.875 1 5.875Z" fill="#2C406E"/>
<path d="M0.125 8.67493C0.125 8.90699 0.217187 9.12955 0.381282 9.29365C0.545376 9.45774 0.767936 9.54993 1 9.54993C1.23206 9.54993 1.45462 9.45774 1.61872 9.29365C1.78281 9.12955 1.875 8.90699 1.875 8.67493C1.875 8.44286 1.78281 8.2203 1.61872 8.05621C1.45462 7.89211 1.23206 7.79993 1 7.79993C0.767936 7.79993 0.545376 7.89211 0.381282 8.05621C0.217187 8.2203 0.125 8.44286 0.125 8.67493Z" fill="#2C406E"/>
</svg>
